<mxfile host="app.diagrams.net" agent="Mozilla/5.0 (Macintosh; Intel Mac OS X 10_15_7) AppleWebKit/537.36 (KHTML, like Gecko) Chrome/130.0.0.0 Safari/537.36 Edg/130.0.0.0" version="24.8.3">
  <diagram name="第 1 页" id="Xzantae27FGKc3-j91RS">
    <mxGraphModel dx="976" dy="548" grid="1" gridSize="10" guides="1" tooltips="1" connect="1" arrows="1" fold="1" page="1" pageScale="1" pageWidth="827" pageHeight="1169" math="0" shadow="0">
      <root>
        <mxCell id="0" />
        <mxCell id="1" parent="0" />
        <mxCell id="fOgnGRrVRqof7bRT2I_r-9" style="edgeStyle=orthogonalEdgeStyle;rounded=0;orthogonalLoop=1;jettySize=auto;html=1;curved=1;" edge="1" parent="1" source="fOgnGRrVRqof7bRT2I_r-1" target="fOgnGRrVRqof7bRT2I_r-2">
          <mxGeometry relative="1" as="geometry" />
        </mxCell>
        <mxCell id="fOgnGRrVRqof7bRT2I_r-10" style="edgeStyle=orthogonalEdgeStyle;rounded=0;orthogonalLoop=1;jettySize=auto;html=1;entryX=0.5;entryY=0;entryDx=0;entryDy=0;curved=1;" edge="1" parent="1" source="fOgnGRrVRqof7bRT2I_r-1" target="fOgnGRrVRqof7bRT2I_r-3">
          <mxGeometry relative="1" as="geometry" />
        </mxCell>
        <mxCell id="fOgnGRrVRqof7bRT2I_r-1" value="&lt;font style=&quot;font-size: 24px;&quot;&gt;0&lt;/font&gt;" style="ellipse;whiteSpace=wrap;html=1;aspect=fixed;" vertex="1" parent="1">
          <mxGeometry x="374" y="20" width="80" height="80" as="geometry" />
        </mxCell>
        <mxCell id="fOgnGRrVRqof7bRT2I_r-12" style="edgeStyle=orthogonalEdgeStyle;rounded=0;orthogonalLoop=1;jettySize=auto;html=1;entryX=0.5;entryY=0;entryDx=0;entryDy=0;curved=1;" edge="1" parent="1" source="fOgnGRrVRqof7bRT2I_r-2" target="fOgnGRrVRqof7bRT2I_r-4">
          <mxGeometry relative="1" as="geometry" />
        </mxCell>
        <mxCell id="fOgnGRrVRqof7bRT2I_r-2" value="&lt;font style=&quot;font-size: 24px;&quot;&gt;1&lt;/font&gt;" style="ellipse;whiteSpace=wrap;html=1;aspect=fixed;" vertex="1" parent="1">
          <mxGeometry x="250" y="150" width="80" height="80" as="geometry" />
        </mxCell>
        <mxCell id="fOgnGRrVRqof7bRT2I_r-14" style="edgeStyle=orthogonalEdgeStyle;shape=connector;curved=1;rounded=0;orthogonalLoop=1;jettySize=auto;html=1;strokeColor=default;align=center;verticalAlign=middle;fontFamily=Helvetica;fontSize=11;fontColor=default;labelBackgroundColor=default;endArrow=classic;" edge="1" parent="1" source="fOgnGRrVRqof7bRT2I_r-3" target="fOgnGRrVRqof7bRT2I_r-6">
          <mxGeometry relative="1" as="geometry" />
        </mxCell>
        <mxCell id="fOgnGRrVRqof7bRT2I_r-3" value="&lt;font style=&quot;font-size: 24px;&quot;&gt;2&lt;/font&gt;" style="ellipse;whiteSpace=wrap;html=1;aspect=fixed;" vertex="1" parent="1">
          <mxGeometry x="490" y="150" width="80" height="80" as="geometry" />
        </mxCell>
        <mxCell id="fOgnGRrVRqof7bRT2I_r-16" style="edgeStyle=orthogonalEdgeStyle;shape=connector;curved=1;rounded=0;orthogonalLoop=1;jettySize=auto;html=1;entryX=0.5;entryY=0;entryDx=0;entryDy=0;strokeColor=default;align=center;verticalAlign=middle;fontFamily=Helvetica;fontSize=11;fontColor=default;labelBackgroundColor=default;endArrow=classic;" edge="1" parent="1" source="fOgnGRrVRqof7bRT2I_r-4" target="fOgnGRrVRqof7bRT2I_r-5">
          <mxGeometry relative="1" as="geometry" />
        </mxCell>
        <mxCell id="fOgnGRrVRqof7bRT2I_r-4" value="&lt;font style=&quot;font-size: 24px;&quot;&gt;3&lt;/font&gt;" style="ellipse;whiteSpace=wrap;html=1;aspect=fixed;" vertex="1" parent="1">
          <mxGeometry x="90" y="290" width="80" height="80" as="geometry" />
        </mxCell>
        <mxCell id="fOgnGRrVRqof7bRT2I_r-5" value="&lt;font style=&quot;font-size: 24px;&quot;&gt;5&lt;/font&gt;" style="ellipse;whiteSpace=wrap;html=1;aspect=fixed;" vertex="1" parent="1">
          <mxGeometry x="100" y="420" width="80" height="80" as="geometry" />
        </mxCell>
        <mxCell id="fOgnGRrVRqof7bRT2I_r-6" value="&lt;font style=&quot;font-size: 24px;&quot;&gt;4&lt;/font&gt;" style="ellipse;whiteSpace=wrap;html=1;aspect=fixed;" vertex="1" parent="1">
          <mxGeometry x="454" y="290" width="80" height="80" as="geometry" />
        </mxCell>
        <mxCell id="fOgnGRrVRqof7bRT2I_r-17" style="edgeStyle=orthogonalEdgeStyle;rounded=0;orthogonalLoop=1;jettySize=auto;html=1;curved=1;" edge="1" parent="1" source="fOgnGRrVRqof7bRT2I_r-19" target="fOgnGRrVRqof7bRT2I_r-21">
          <mxGeometry relative="1" as="geometry" />
        </mxCell>
        <mxCell id="fOgnGRrVRqof7bRT2I_r-18" style="edgeStyle=orthogonalEdgeStyle;rounded=0;orthogonalLoop=1;jettySize=auto;html=1;entryX=0.5;entryY=0;entryDx=0;entryDy=0;curved=1;" edge="1" parent="1" source="fOgnGRrVRqof7bRT2I_r-19" target="fOgnGRrVRqof7bRT2I_r-23">
          <mxGeometry relative="1" as="geometry" />
        </mxCell>
        <mxCell id="fOgnGRrVRqof7bRT2I_r-19" value="&lt;font style=&quot;font-size: 24px;&quot;&gt;0&lt;/font&gt;" style="ellipse;whiteSpace=wrap;html=1;aspect=fixed;" vertex="1" parent="1">
          <mxGeometry x="374" y="20" width="80" height="80" as="geometry" />
        </mxCell>
        <mxCell id="fOgnGRrVRqof7bRT2I_r-20" style="edgeStyle=orthogonalEdgeStyle;rounded=0;orthogonalLoop=1;jettySize=auto;html=1;entryX=0.5;entryY=0;entryDx=0;entryDy=0;curved=1;" edge="1" parent="1" source="fOgnGRrVRqof7bRT2I_r-21" target="fOgnGRrVRqof7bRT2I_r-25">
          <mxGeometry relative="1" as="geometry" />
        </mxCell>
        <mxCell id="fOgnGRrVRqof7bRT2I_r-21" value="&lt;font style=&quot;font-size: 24px;&quot;&gt;1&lt;/font&gt;" style="ellipse;whiteSpace=wrap;html=1;aspect=fixed;" vertex="1" parent="1">
          <mxGeometry x="250" y="150" width="80" height="80" as="geometry" />
        </mxCell>
        <mxCell id="fOgnGRrVRqof7bRT2I_r-22" style="edgeStyle=orthogonalEdgeStyle;shape=connector;curved=1;rounded=0;orthogonalLoop=1;jettySize=auto;html=1;strokeColor=default;align=center;verticalAlign=middle;fontFamily=Helvetica;fontSize=11;fontColor=default;labelBackgroundColor=default;endArrow=classic;" edge="1" parent="1" source="fOgnGRrVRqof7bRT2I_r-23" target="fOgnGRrVRqof7bRT2I_r-27">
          <mxGeometry relative="1" as="geometry" />
        </mxCell>
        <mxCell id="fOgnGRrVRqof7bRT2I_r-23" value="&lt;font style=&quot;font-size: 24px;&quot;&gt;2&lt;/font&gt;" style="ellipse;whiteSpace=wrap;html=1;aspect=fixed;" vertex="1" parent="1">
          <mxGeometry x="490" y="150" width="80" height="80" as="geometry" />
        </mxCell>
        <mxCell id="fOgnGRrVRqof7bRT2I_r-24" style="edgeStyle=orthogonalEdgeStyle;shape=connector;curved=1;rounded=0;orthogonalLoop=1;jettySize=auto;html=1;entryX=0.5;entryY=0;entryDx=0;entryDy=0;strokeColor=default;align=center;verticalAlign=middle;fontFamily=Helvetica;fontSize=11;fontColor=default;labelBackgroundColor=default;endArrow=classic;" edge="1" parent="1" source="fOgnGRrVRqof7bRT2I_r-25" target="fOgnGRrVRqof7bRT2I_r-26">
          <mxGeometry relative="1" as="geometry" />
        </mxCell>
        <mxCell id="fOgnGRrVRqof7bRT2I_r-25" value="&lt;font style=&quot;font-size: 24px;&quot;&gt;3&lt;/font&gt;" style="ellipse;whiteSpace=wrap;html=1;aspect=fixed;" vertex="1" parent="1">
          <mxGeometry x="90" y="290" width="80" height="80" as="geometry" />
        </mxCell>
        <mxCell id="fOgnGRrVRqof7bRT2I_r-26" value="&lt;font style=&quot;font-size: 24px;&quot;&gt;5&lt;/font&gt;" style="ellipse;whiteSpace=wrap;html=1;aspect=fixed;" vertex="1" parent="1">
          <mxGeometry x="100" y="420" width="80" height="80" as="geometry" />
        </mxCell>
        <mxCell id="fOgnGRrVRqof7bRT2I_r-27" value="&lt;font style=&quot;font-size: 24px;&quot;&gt;4&lt;/font&gt;" style="ellipse;whiteSpace=wrap;html=1;aspect=fixed;" vertex="1" parent="1">
          <mxGeometry x="454" y="290" width="80" height="80" as="geometry" />
        </mxCell>
      </root>
    </mxGraphModel>
  </diagram>
</mxfile>
